<?xml version="1.0" encoding="UTF-8"?><svg xmlns="http://www.w3.org/2000/svg" xmlns:xlink="http://www.w3.org/1999/xlink" stroke-dasharray="none" shape-rendering="auto" font-family="'Dialog'" width="1706" text-rendering="auto" fill-opacity="1" contentScriptType="text/ecmascript" color-interpolation="auto" color-rendering="auto" preserveAspectRatio="xMidYMid meet" font-size="12" xmlns:diagram="http://www.eclipse.org/sirius/diagram/1.1.0" diagram:semanticRoot="platform:/resource/modelingassistant/model/learningcorpusquiz.ecore#/" viewBox="0 0 1706 261" fill="black" stroke="black" image-rendering="auto" stroke-miterlimit="10" zoomAndPan="magnify" version="1.0" stroke-linecap="square" stroke-linejoin="miter" contentStyleType="text/css" font-style="normal" height="261" stroke-width="1" stroke-dashoffset="0" font-weight="normal" stroke-opacity="1">
    <!--Generated by the Batik Graphics2D SVG Generator-->
    <defs id="genericDefs"/>
    <g>
        <defs id="defs1">
            <linearGradient x1="841" x2="985" y1="10" gradientUnits="userSpaceOnUse" y2="10" xlink:type="simple" xlink:actuate="onLoad" id="linearGradient1" xlink:show="other" spreadMethod="pad">
                <stop stop-opacity="1" stop-color="rgb(220,220,255)" offset="0%"/>
                <stop stop-opacity="1" stop-color="rgb(130,234,255)" offset="100%"/>
            </linearGradient>
            <linearGradient x1="1076" x2="1234" y1="67" gradientUnits="userSpaceOnUse" y2="172" xlink:type="simple" xlink:actuate="onLoad" id="linearGradient2" xlink:show="other" spreadMethod="pad">
                <stop stop-opacity="1" stop-color="white" offset="0%"/>
                <stop stop-opacity="1" stop-color="white" offset="100%"/>
            </linearGradient>
            <linearGradient x1="813" x2="1008" y1="58" gradientUnits="userSpaceOnUse" y2="181" xlink:type="simple" xlink:actuate="onLoad" id="linearGradient3" xlink:show="other" spreadMethod="pad">
                <stop stop-opacity="1" stop-color="white" offset="0%"/>
                <stop stop-opacity="1" stop-color="white" offset="100%"/>
            </linearGradient>
            <linearGradient x1="444" x2="650" y1="55" gradientUnits="userSpaceOnUse" y2="184" xlink:type="simple" xlink:actuate="onLoad" id="linearGradient4" xlink:show="other" spreadMethod="pad">
                <stop stop-opacity="1" stop-color="white" offset="0%"/>
                <stop stop-opacity="1" stop-color="white" offset="100%"/>
            </linearGradient>
            <linearGradient x1="1035" x2="1267" y1="134" gradientUnits="userSpaceOnUse" y2="280" xlink:type="simple" xlink:actuate="onLoad" id="linearGradient5" xlink:show="other" spreadMethod="pad">
                <stop stop-opacity="1" stop-color="white" offset="0%"/>
                <stop stop-opacity="1" stop-color="white" offset="100%"/>
            </linearGradient>
            <linearGradient x1="1363" x2="1694" y1="22" gradientUnits="userSpaceOnUse" y2="214" xlink:type="simple" xlink:actuate="onLoad" id="linearGradient6" xlink:show="other" spreadMethod="pad">
                <stop stop-opacity="1" stop-color="white" offset="0%"/>
                <stop stop-opacity="1" stop-color="white" offset="100%"/>
            </linearGradient>
            <linearGradient x1="1367" x2="1475" y1="166" gradientUnits="userSpaceOnUse" y2="250" xlink:type="simple" xlink:actuate="onLoad" id="linearGradient7" xlink:show="other" spreadMethod="pad">
                <stop stop-opacity="1" stop-color="white" offset="0%"/>
                <stop stop-opacity="1" stop-color="white" offset="100%"/>
            </linearGradient>
            <linearGradient x1="1492" x2="1692" y1="143" gradientUnits="userSpaceOnUse" y2="273" xlink:type="simple" xlink:actuate="onLoad" id="linearGradient8" xlink:show="other" spreadMethod="pad">
                <stop stop-opacity="1" stop-color="white" offset="0%"/>
                <stop stop-opacity="1" stop-color="white" offset="100%"/>
            </linearGradient>
            <linearGradient x1="839" x2="987" y1="155" gradientUnits="userSpaceOnUse" y2="259" xlink:type="simple" xlink:actuate="onLoad" id="linearGradient9" xlink:show="other" spreadMethod="pad">
                <stop stop-opacity="1" stop-color="white" offset="0%"/>
                <stop stop-opacity="1" stop-color="white" offset="100%"/>
            </linearGradient>
            <linearGradient x1="310" x2="496" y1="146" gradientUnits="userSpaceOnUse" y2="269" xlink:type="simple" xlink:actuate="onLoad" id="linearGradient10" xlink:show="other" spreadMethod="pad">
                <stop stop-opacity="1" stop-color="white" offset="0%"/>
                <stop stop-opacity="1" stop-color="white" offset="100%"/>
            </linearGradient>
            <linearGradient x1="10" x2="170" y1="152" gradientUnits="userSpaceOnUse" y2="262" xlink:type="simple" xlink:actuate="onLoad" id="linearGradient11" xlink:show="other" spreadMethod="pad">
                <stop stop-opacity="1" stop-color="white" offset="0%"/>
                <stop stop-opacity="1" stop-color="white" offset="100%"/>
            </linearGradient>
            <linearGradient x1="639" x2="819" y1="147" gradientUnits="userSpaceOnUse" y2="267" xlink:type="simple" xlink:actuate="onLoad" id="linearGradient12" xlink:show="other" spreadMethod="pad">
                <stop stop-opacity="1" stop-color="white" offset="0%"/>
                <stop stop-opacity="1" stop-color="white" offset="100%"/>
            </linearGradient>
            <clipPath clipPathUnits="userSpaceOnUse" id="clipPath1">
                <path d="M840 9 L988 9 L988 67 L840 67 L840 9 Z"/>
            </clipPath>
            <clipPath clipPathUnits="userSpaceOnUse" id="clipPath2">
                <path d="M840 9 L986 9 L986 65 L840 65 L840 9 Z"/>
            </clipPath>
            <clipPath clipPathUnits="userSpaceOnUse" id="clipPath3">
                <path d="M895 14 L935 14 L935 38 L895 38 L895 14 Z"/>
            </clipPath>
            <clipPath clipPathUnits="userSpaceOnUse" id="clipPath4">
                <path d="M841 41 L985 41 L985 64 L841 64 L841 41 Z"/>
            </clipPath>
            <clipPath clipPathUnits="userSpaceOnUse" id="clipPath5">
                <path d="M1075 92 L1237 92 L1237 149 L1075 149 L1075 92 Z"/>
            </clipPath>
            <clipPath clipPathUnits="userSpaceOnUse" id="clipPath6">
                <path d="M1075 92 L1235 92 L1235 147 L1075 147 L1075 92 Z"/>
            </clipPath>
            <clipPath clipPathUnits="userSpaceOnUse" id="clipPath7">
                <path d="M1080 97 L1232 97 L1232 121 L1080 121 L1080 97 Z"/>
            </clipPath>
            <clipPath clipPathUnits="userSpaceOnUse" id="clipPath8">
                <path d="M1076 124 L1234 124 L1234 146 L1076 146 L1076 124 Z"/>
            </clipPath>
            <clipPath clipPathUnits="userSpaceOnUse" id="clipPath9">
                <path d="M812 92 L1011 92 L1011 148 L812 148 L812 92 Z"/>
            </clipPath>
            <clipPath clipPathUnits="userSpaceOnUse" id="clipPath10">
                <path d="M812 92 L1009 92 L1009 146 L812 146 L812 92 Z"/>
            </clipPath>
            <clipPath clipPathUnits="userSpaceOnUse" id="clipPath11">
                <path d="M823 97 L1001 97 L1001 121 L823 121 L823 97 Z"/>
            </clipPath>
            <clipPath clipPathUnits="userSpaceOnUse" id="clipPath12">
                <path d="M813 124 L1008 124 L1008 145 L813 145 L813 124 Z"/>
            </clipPath>
            <clipPath clipPathUnits="userSpaceOnUse" id="clipPath13">
                <path d="M443 92 L653 92 L653 148 L443 148 L443 92 Z"/>
            </clipPath>
            <clipPath clipPathUnits="userSpaceOnUse" id="clipPath14">
                <path d="M443 92 L651 92 L651 146 L443 146 L443 92 Z"/>
            </clipPath>
            <clipPath clipPathUnits="userSpaceOnUse" id="clipPath15">
                <path d="M452 97 L645 97 L645 121 L452 121 L452 97 Z"/>
            </clipPath>
            <clipPath clipPathUnits="userSpaceOnUse" id="clipPath16">
                <path d="M444 124 L650 124 L650 145 L444 145 L444 124 Z"/>
            </clipPath>
            <clipPath clipPathUnits="userSpaceOnUse" id="clipPath17">
                <path d="M1034 176 L1270 176 L1270 240 L1034 240 L1034 176 Z"/>
            </clipPath>
            <clipPath clipPathUnits="userSpaceOnUse" id="clipPath18">
                <path d="M1034 176 L1268 176 L1268 238 L1034 238 L1034 176 Z"/>
            </clipPath>
            <clipPath clipPathUnits="userSpaceOnUse" id="clipPath19">
                <path d="M1037 181 L1269 181 L1269 205 L1037 205 L1037 181 Z"/>
            </clipPath>
            <clipPath clipPathUnits="userSpaceOnUse" id="clipPath20">
                <path d="M1035 208 L1267 208 L1267 237 L1035 237 L1035 208 Z"/>
            </clipPath>
            <clipPath clipPathUnits="userSpaceOnUse" id="clipPath21">
                <path d="M1362 90 L1697 90 L1697 147 L1362 147 L1362 90 Z"/>
            </clipPath>
            <clipPath clipPathUnits="userSpaceOnUse" id="clipPath22">
                <path d="M1362 90 L1695 90 L1695 145 L1362 145 L1362 90 Z"/>
            </clipPath>
            <clipPath clipPathUnits="userSpaceOnUse" id="clipPath23">
                <path d="M1369 95 L1691 95 L1691 119 L1369 119 L1369 95 Z"/>
            </clipPath>
            <clipPath clipPathUnits="userSpaceOnUse" id="clipPath24">
                <path d="M1363 122 L1694 122 L1694 144 L1363 144 L1363 122 Z"/>
            </clipPath>
            <clipPath clipPathUnits="userSpaceOnUse" id="clipPath25">
                <path d="M1366 177 L1478 177 L1478 241 L1366 241 L1366 177 Z"/>
            </clipPath>
            <clipPath clipPathUnits="userSpaceOnUse" id="clipPath26">
                <path d="M1366 177 L1476 177 L1476 239 L1366 239 L1366 177 Z"/>
            </clipPath>
            <clipPath clipPathUnits="userSpaceOnUse" id="clipPath27">
                <path d="M1383 182 L1463 182 L1463 206 L1383 206 L1383 182 Z"/>
            </clipPath>
            <clipPath clipPathUnits="userSpaceOnUse" id="clipPath28">
                <path d="M1371 211 L1472 211 L1472 235 L1371 235 L1371 211 Z"/>
            </clipPath>
            <clipPath clipPathUnits="userSpaceOnUse" id="clipPath29">
                <path d="M1367 209 L1475 209 L1475 238 L1367 238 L1367 209 Z"/>
            </clipPath>
            <clipPath clipPathUnits="userSpaceOnUse" id="clipPath30">
                <path d="M1491 177 L1695 177 L1695 241 L1491 241 L1491 177 Z"/>
            </clipPath>
            <clipPath clipPathUnits="userSpaceOnUse" id="clipPath31">
                <path d="M1491 177 L1693 177 L1693 239 L1491 239 L1491 177 Z"/>
            </clipPath>
            <clipPath clipPathUnits="userSpaceOnUse" id="clipPath32">
                <path d="M1570 182 L1618 182 L1618 206 L1570 206 L1570 182 Z"/>
            </clipPath>
            <clipPath clipPathUnits="userSpaceOnUse" id="clipPath33">
                <path d="M1496 211 L1679 211 L1679 235 L1496 235 L1496 211 Z"/>
            </clipPath>
            <clipPath clipPathUnits="userSpaceOnUse" id="clipPath34">
                <path d="M1492 209 L1692 209 L1692 238 L1492 238 L1492 209 Z"/>
            </clipPath>
            <clipPath clipPathUnits="userSpaceOnUse" id="clipPath35">
                <path d="M838 176 L990 176 L990 240 L838 240 L838 176 Z"/>
            </clipPath>
            <clipPath clipPathUnits="userSpaceOnUse" id="clipPath36">
                <path d="M838 176 L988 176 L988 238 L838 238 L838 176 Z"/>
            </clipPath>
            <clipPath clipPathUnits="userSpaceOnUse" id="clipPath37">
                <path d="M886 181 L943 181 L943 205 L886 205 L886 181 Z"/>
            </clipPath>
            <clipPath clipPathUnits="userSpaceOnUse" id="clipPath38">
                <path d="M843 210 L944 210 L944 234 L843 234 L843 210 Z"/>
            </clipPath>
            <clipPath clipPathUnits="userSpaceOnUse" id="clipPath39">
                <path d="M839 208 L987 208 L987 237 L839 237 L839 208 Z"/>
            </clipPath>
            <clipPath clipPathUnits="userSpaceOnUse" id="clipPath40">
                <path d="M309 176 L499 176 L499 240 L309 240 L309 176 Z"/>
            </clipPath>
            <clipPath clipPathUnits="userSpaceOnUse" id="clipPath41">
                <path d="M309 176 L497 176 L497 238 L309 238 L309 176 Z"/>
            </clipPath>
            <clipPath clipPathUnits="userSpaceOnUse" id="clipPath42">
                <path d="M317 181 L492 181 L492 205 L317 205 L317 181 Z"/>
            </clipPath>
            <clipPath clipPathUnits="userSpaceOnUse" id="clipPath43">
                <path d="M310 208 L496 208 L496 237 L310 237 L310 208 Z"/>
            </clipPath>
            <clipPath clipPathUnits="userSpaceOnUse" id="clipPath44">
                <path d="M9 176 L173 176 L173 240 L9 240 L9 176 Z"/>
            </clipPath>
            <clipPath clipPathUnits="userSpaceOnUse" id="clipPath45">
                <path d="M9 176 L171 176 L171 238 L9 238 L9 176 Z"/>
            </clipPath>
            <clipPath clipPathUnits="userSpaceOnUse" id="clipPath46">
                <path d="M19 181 L165 181 L165 205 L19 205 L19 181 Z"/>
            </clipPath>
            <clipPath clipPathUnits="userSpaceOnUse" id="clipPath47">
                <path d="M14 210 L115 210 L115 234 L14 234 L14 210 Z"/>
            </clipPath>
            <clipPath clipPathUnits="userSpaceOnUse" id="clipPath48">
                <path d="M10 208 L170 208 L170 237 L10 237 L10 208 Z"/>
            </clipPath>
            <clipPath clipPathUnits="userSpaceOnUse" id="clipPath49">
                <path d="M638 176 L822 176 L822 240 L638 240 L638 176 Z"/>
            </clipPath>
            <clipPath clipPathUnits="userSpaceOnUse" id="clipPath50">
                <path d="M638 176 L820 176 L820 238 L638 238 L638 176 Z"/>
            </clipPath>
            <clipPath clipPathUnits="userSpaceOnUse" id="clipPath51">
                <path d="M644 181 L817 181 L817 205 L644 205 L644 181 Z"/>
            </clipPath>
            <clipPath clipPathUnits="userSpaceOnUse" id="clipPath52">
                <path d="M643 210 L744 210 L744 234 L643 234 L643 210 Z"/>
            </clipPath>
            <clipPath clipPathUnits="userSpaceOnUse" id="clipPath53">
                <path d="M639 208 L819 208 L819 237 L639 237 L639 208 Z"/>
            </clipPath>
            <clipPath clipPathUnits="userSpaceOnUse" id="clipPath54">
                <path d="M-1 -1 L1707 -1 L1707 262 L-1 262 L-1 -1 Z"/>
            </clipPath>
            <clipPath clipPathUnits="userSpaceOnUse" id="clipPath55">
                <path d="M907 63 L918 63 L918 74 L907 74 L907 63 Z"/>
            </clipPath>
            <clipPath clipPathUnits="userSpaceOnUse" id="clipPath56">
                <path d="M1531 143 L1542 143 L1542 154 L1531 154 L1531 143 Z"/>
            </clipPath>
            <clipPath clipPathUnits="userSpaceOnUse" id="clipPath57">
                <path d="M1135 140 L1212 140 L1212 164 L1135 164 L1135 140 Z"/>
            </clipPath>
            <clipPath clipPathUnits="userSpaceOnUse" id="clipPath58">
                <path d="M1156 151 L1287 151 L1287 175 L1156 175 L1156 151 Z"/>
            </clipPath>
            <clipPath clipPathUnits="userSpaceOnUse" id="clipPath59">
                <path d="M1148 145 L1157 145 L1157 160 L1148 160 L1148 145 Z"/>
            </clipPath>
            <clipPath clipPathUnits="userSpaceOnUse" id="clipPath60">
                <path d="M1148 169 L1157 169 L1157 179 L1148 179 L1148 169 Z"/>
            </clipPath>
            <clipPath clipPathUnits="userSpaceOnUse" id="clipPath61">
                <path d="M1268 214 L1391 214 L1391 238 L1268 238 L1268 214 Z"/>
            </clipPath>
            <clipPath clipPathUnits="userSpaceOnUse" id="clipPath62">
                <path d="M1242 113 L1384 113 L1384 137 L1242 137 L1242 113 Z"/>
            </clipPath>
            <clipPath clipPathUnits="userSpaceOnUse" id="clipPath63">
                <path d="M1266 210 L1281 210 L1281 219 L1266 219 L1266 210 Z"/>
            </clipPath>
            <clipPath clipPathUnits="userSpaceOnUse" id="clipPath64">
                <path d="M1355 137 L1365 137 L1365 146 L1355 146 L1355 137 Z"/>
            </clipPath>
            <clipPath clipPathUnits="userSpaceOnUse" id="clipPath65">
                <path d="M915 140 L992 140 L992 164 L915 164 L915 140 Z"/>
            </clipPath>
            <clipPath clipPathUnits="userSpaceOnUse" id="clipPath66">
                <path d="M820 153 L939 153 L939 178 L820 178 L820 153 Z"/>
            </clipPath>
            <clipPath clipPathUnits="userSpaceOnUse" id="clipPath67">
                <path d="M905 144 L914 144 L914 159 L905 159 L905 144 Z"/>
            </clipPath>
            <clipPath clipPathUnits="userSpaceOnUse" id="clipPath68">
                <path d="M905 169 L914 169 L914 179 L905 179 L905 169 Z"/>
            </clipPath>
            <clipPath clipPathUnits="userSpaceOnUse" id="clipPath69">
                <path d="M963 151 L1121 151 L1121 175 L963 175 L963 151 Z"/>
            </clipPath>
            <clipPath clipPathUnits="userSpaceOnUse" id="clipPath70">
                <path d="M955 169 L964 169 L964 179 L955 179 L955 169 Z"/>
            </clipPath>
            <clipPath clipPathUnits="userSpaceOnUse" id="clipPath71">
                <path d="M423 90 L500 90 L500 114 L423 114 L423 90 Z"/>
            </clipPath>
            <clipPath clipPathUnits="userSpaceOnUse" id="clipPath72">
                <path d="M52 151 L168 151 L168 175 L52 175 L52 151 Z"/>
            </clipPath>
            <clipPath clipPathUnits="userSpaceOnUse" id="clipPath73">
                <path d="M431 116 L446 116 L446 125 L431 125 L431 116 Z"/>
            </clipPath>
            <clipPath clipPathUnits="userSpaceOnUse" id="clipPath74">
                <path d="M141 169 L150 169 L150 179 L141 179 L141 169 Z"/>
            </clipPath>
            <clipPath clipPathUnits="userSpaceOnUse" id="clipPath75">
                <path d="M651 93 L728 93 L728 117 L651 117 L651 93 Z"/>
            </clipPath>
            <clipPath clipPathUnits="userSpaceOnUse" id="clipPath76">
                <path d="M653 148 L805 148 L805 174 L653 174 L653 148 Z"/>
            </clipPath>
            <clipPath clipPathUnits="userSpaceOnUse" id="clipPath77">
                <path d="M649 118 L664 118 L664 127 L649 127 L649 118 Z"/>
            </clipPath>
            <clipPath clipPathUnits="userSpaceOnUse" id="clipPath78">
                <path d="M772 169 L781 169 L781 179 L772 179 L772 169 Z"/>
            </clipPath>
            <clipPath clipPathUnits="userSpaceOnUse" id="clipPath79">
                <path d="M466 143 L543 143 L543 167 L466 167 L466 143 Z"/>
            </clipPath>
            <clipPath clipPathUnits="userSpaceOnUse" id="clipPath80">
                <path d="M328 153 L480 153 L480 177 L328 177 L328 153 Z"/>
            </clipPath>
            <clipPath clipPathUnits="userSpaceOnUse" id="clipPath81">
                <path d="M458 144 L467 144 L467 159 L458 159 L458 144 Z"/>
            </clipPath>
            <clipPath clipPathUnits="userSpaceOnUse" id="clipPath82">
                <path d="M458 169 L467 169 L467 179 L458 179 L458 169 Z"/>
            </clipPath>
            <clipPath clipPathUnits="userSpaceOnUse" id="clipPath83">
                <path d="M497 187 L649 187 L649 211 L497 211 L497 187 Z"/>
            </clipPath>
            <clipPath clipPathUnits="userSpaceOnUse" id="clipPath84">
                <path d="M527 215 L664 215 L664 239 L527 239 L527 215 Z"/>
            </clipPath>
            <clipPath clipPathUnits="userSpaceOnUse" id="clipPath85">
                <path d="M495 212 L505 212 L505 221 L495 221 L495 212 Z"/>
            </clipPath>
            <clipPath clipPathUnits="userSpaceOnUse" id="clipPath86">
                <path d="M631 212 L641 212 L641 221 L631 221 L631 212 Z"/>
            </clipPath>
            <clipPath clipPathUnits="userSpaceOnUse" id="clipPath87">
                <path d="M184 182 L336 182 L336 206 L184 206 L184 182 Z"/>
            </clipPath>
            <clipPath clipPathUnits="userSpaceOnUse" id="clipPath88">
                <path d="M173 210 L280 210 L280 234 L173 234 L173 210 Z"/>
            </clipPath>
            <clipPath clipPathUnits="userSpaceOnUse" id="clipPath89">
                <path d="M302 206 L312 206 L312 215 L302 215 L302 206 Z"/>
            </clipPath>
            <clipPath clipPathUnits="userSpaceOnUse" id="clipPath90">
                <path d="M169 206 L179 206 L179 215 L169 215 L169 206 Z"/>
            </clipPath>
        </defs>
        <g font-size="16" fill="rgb(131,122,133)" font-family="'Noto Sans'" stroke-linejoin="round" stroke="rgb(131,122,133)" stroke-width="0" stroke-miterlimit="0">
            <rect x="842" y="11" clip-path="url(#clipPath1)" width="144" rx="0" opacity="0.2549" ry="0" height="54" stroke="none"/>
            <rect x="843" y="12" clip-path="url(#clipPath1)" width="144" rx="0" opacity="0.2549" ry="0" height="54" stroke="none"/>
            <rect x="841" y="10" clip-path="url(#clipPath2)" fill="url(#linearGradient1)" width="144" rx="0" ry="0" height="54" stroke="none"/>
        </g>
        <g stroke-width="1.1" font-size="16" font-family="'Noto Sans'" stroke-linecap="butt">
            <rect x="841" y="10" clip-path="url(#clipPath2)" fill="none" width="143" rx="0" ry="0" height="53"/>
            <text xml:space="preserve" x="896" y="33" clip-path="url(#clipPath3)" stroke="none">Quiz</text>
            <line clip-path="url(#clipPath4)" fill="none" x1="842" x2="984" y1="42" y2="42"/>
            <rect x="1077" y="94" clip-path="url(#clipPath5)" fill="rgb(131,122,133)" width="158" rx="0" opacity="0.2549" ry="0" height="53" stroke="none"/>
            <rect x="1078" y="95" clip-path="url(#clipPath5)" fill="rgb(131,122,133)" width="158" rx="0" opacity="0.2549" ry="0" height="53" stroke="none"/>
            <rect x="1076" y="93" clip-path="url(#clipPath6)" fill="url(#linearGradient2)" width="158" rx="0" ry="0" height="53" stroke="none"/>
            <rect x="1076" y="93" clip-path="url(#clipPath6)" fill="none" width="157" rx="0" ry="0" height="52"/>
            <text xml:space="preserve" x="1081" y="116" clip-path="url(#clipPath7)" stroke="none">FillInTheBlanksQuiz</text>
            <line clip-path="url(#clipPath8)" fill="none" x1="1077" x2="1233" y1="125" y2="125"/>
            <rect x="814" y="94" clip-path="url(#clipPath9)" fill="rgb(131,122,133)" width="195" rx="0" opacity="0.2549" ry="0" height="52" stroke="none"/>
            <rect x="815" y="95" clip-path="url(#clipPath9)" fill="rgb(131,122,133)" width="195" rx="0" opacity="0.2549" ry="0" height="52" stroke="none"/>
            <rect x="813" y="93" clip-path="url(#clipPath10)" fill="url(#linearGradient3)" width="195" rx="0" ry="0" height="52" stroke="none"/>
            <rect x="813" y="93" clip-path="url(#clipPath10)" fill="none" width="194" rx="0" ry="0" height="51"/>
            <text xml:space="preserve" x="824" y="116" clip-path="url(#clipPath11)" stroke="none">ListMultipleChoiceQuiz</text>
            <line clip-path="url(#clipPath12)" fill="none" x1="814" x2="1007" y1="125" y2="125"/>
            <rect x="445" y="94" clip-path="url(#clipPath13)" fill="rgb(131,122,133)" width="206" rx="0" opacity="0.2549" ry="0" height="52" stroke="none"/>
            <rect x="446" y="95" clip-path="url(#clipPath13)" fill="rgb(131,122,133)" width="206" rx="0" opacity="0.2549" ry="0" height="52" stroke="none"/>
            <rect x="444" y="93" clip-path="url(#clipPath14)" fill="url(#linearGradient4)" width="206" rx="0" ry="0" height="52" stroke="none"/>
            <rect x="444" y="93" clip-path="url(#clipPath14)" fill="none" width="205" rx="0" ry="0" height="51"/>
            <text xml:space="preserve" x="453" y="116" clip-path="url(#clipPath15)" stroke="none">TableMultipleChoiceQuiz</text>
            <line clip-path="url(#clipPath16)" fill="none" x1="445" x2="649" y1="125" y2="125"/>
            <rect x="1036" y="178" clip-path="url(#clipPath17)" fill="rgb(131,122,133)" width="232" rx="0" opacity="0.2549" ry="0" height="60" stroke="none"/>
            <rect x="1037" y="179" clip-path="url(#clipPath17)" fill="rgb(131,122,133)" width="232" rx="0" opacity="0.2549" ry="0" height="60" stroke="none"/>
            <rect x="1035" y="177" clip-path="url(#clipPath18)" fill="url(#linearGradient5)" width="232" rx="0" ry="0" height="60" stroke="none"/>
            <rect x="1035" y="177" clip-path="url(#clipPath18)" fill="none" width="231" rx="0" ry="0" height="59"/>
            <text xml:space="preserve" x="1038" y="200" clip-path="url(#clipPath19)" stroke="none">FillInTheBlanksQuizStatement</text>
            <line clip-path="url(#clipPath20)" fill="none" x1="1036" x2="1266" y1="209" y2="209"/>
            <rect x="1364" y="92" clip-path="url(#clipPath21)" fill="rgb(131,122,133)" width="331" rx="0" opacity="0.2549" ry="0" height="53" stroke="none"/>
            <rect x="1365" y="93" clip-path="url(#clipPath21)" fill="rgb(131,122,133)" width="331" rx="0" opacity="0.2549" ry="0" height="53" stroke="none"/>
            <rect x="1363" y="91" clip-path="url(#clipPath22)" fill="url(#linearGradient6)" width="331" rx="0" ry="0" height="53" stroke="none"/>
            <rect x="1363" y="91" clip-path="url(#clipPath22)" fill="none" width="330" rx="0" ry="0" height="52"/>
            <text xml:space="preserve" x="1370" y="114" clip-path="url(#clipPath23)" stroke="none">FillInTheBlanksQuizStatementComponent</text>
            <line clip-path="url(#clipPath24)" fill="none" x1="1364" x2="1693" y1="123" y2="123"/>
            <rect x="1368" y="179" clip-path="url(#clipPath25)" fill="rgb(131,122,133)" width="108" rx="0" opacity="0.2549" ry="0" height="60" stroke="none"/>
            <rect x="1369" y="180" clip-path="url(#clipPath25)" fill="rgb(131,122,133)" width="108" rx="0" opacity="0.2549" ry="0" height="60" stroke="none"/>
            <rect x="1367" y="178" clip-path="url(#clipPath26)" fill="url(#linearGradient7)" width="108" rx="0" ry="0" height="60" stroke="none"/>
            <rect x="1367" y="178" clip-path="url(#clipPath26)" fill="none" width="107" rx="0" ry="0" height="59"/>
            <text xml:space="preserve" x="1384" y="201" clip-path="url(#clipPath27)" stroke="none">NonBlank</text>
            <text xml:space="preserve" x="1372" y="230" clip-path="url(#clipPath28)" stroke="none">text : EString</text>
            <line clip-path="url(#clipPath29)" fill="none" x1="1368" x2="1474" y1="210" y2="210"/>
            <rect x="1493" y="179" clip-path="url(#clipPath30)" fill="rgb(131,122,133)" width="200" rx="0" opacity="0.2549" ry="0" height="60" stroke="none"/>
            <rect x="1494" y="180" clip-path="url(#clipPath30)" fill="rgb(131,122,133)" width="200" rx="0" opacity="0.2549" ry="0" height="60" stroke="none"/>
            <rect x="1492" y="178" clip-path="url(#clipPath31)" fill="url(#linearGradient8)" width="200" rx="0" ry="0" height="60" stroke="none"/>
            <rect x="1492" y="178" clip-path="url(#clipPath31)" fill="none" width="199" rx="0" ry="0" height="59"/>
            <text xml:space="preserve" x="1571" y="201" clip-path="url(#clipPath32)" stroke="none">Blank</text>
            <text xml:space="preserve" x="1497" y="230" clip-path="url(#clipPath33)" stroke="none">correctAnswer : EString</text>
            <line clip-path="url(#clipPath34)" fill="none" x1="1493" x2="1691" y1="210" y2="210"/>
            <rect x="840" y="178" clip-path="url(#clipPath35)" fill="rgb(131,122,133)" width="148" rx="0" opacity="0.2549" ry="0" height="60" stroke="none"/>
            <rect x="841" y="179" clip-path="url(#clipPath35)" fill="rgb(131,122,133)" width="148" rx="0" opacity="0.2549" ry="0" height="60" stroke="none"/>
            <rect x="839" y="177" clip-path="url(#clipPath36)" fill="url(#linearGradient9)" width="148" rx="0" ry="0" height="60" stroke="none"/>
            <rect x="839" y="177" clip-path="url(#clipPath36)" fill="none" width="147" rx="0" ry="0" height="59"/>
            <text xml:space="preserve" x="887" y="200" clip-path="url(#clipPath37)" stroke="none">Choice</text>
            <text xml:space="preserve" x="844" y="229" clip-path="url(#clipPath38)" stroke="none">text : EString</text>
            <line clip-path="url(#clipPath39)" fill="none" x1="840" x2="986" y1="209" y2="209"/>
            <rect x="311" y="178" clip-path="url(#clipPath40)" fill="rgb(131,122,133)" width="186" rx="0" opacity="0.2549" ry="0" height="60" stroke="none"/>
            <rect x="312" y="179" clip-path="url(#clipPath40)" fill="rgb(131,122,133)" width="186" rx="0" opacity="0.2549" ry="0" height="60" stroke="none"/>
            <rect x="310" y="177" clip-path="url(#clipPath41)" fill="url(#linearGradient10)" width="186" rx="0" ry="0" height="60" stroke="none"/>
            <rect x="310" y="177" clip-path="url(#clipPath41)" fill="none" width="185" rx="0" ry="0" height="59"/>
            <text xml:space="preserve" x="318" y="200" clip-path="url(#clipPath42)" stroke="none">TableMcqCorrectEntry</text>
            <line clip-path="url(#clipPath43)" fill="none" x1="311" x2="495" y1="209" y2="209"/>
            <rect x="11" y="178" clip-path="url(#clipPath44)" fill="rgb(131,122,133)" width="160" rx="0" opacity="0.2549" ry="0" height="60" stroke="none"/>
            <rect x="12" y="179" clip-path="url(#clipPath44)" fill="rgb(131,122,133)" width="160" rx="0" opacity="0.2549" ry="0" height="60" stroke="none"/>
            <rect x="10" y="177" clip-path="url(#clipPath45)" fill="url(#linearGradient11)" width="160" rx="0" ry="0" height="60" stroke="none"/>
            <rect x="10" y="177" clip-path="url(#clipPath45)" fill="none" width="159" rx="0" ry="0" height="59"/>
            <text xml:space="preserve" x="20" y="200" clip-path="url(#clipPath46)" stroke="none">TableMcqRowItem</text>
            <text xml:space="preserve" x="15" y="229" clip-path="url(#clipPath47)" stroke="none">text : EString</text>
            <line clip-path="url(#clipPath48)" fill="none" x1="11" x2="169" y1="209" y2="209"/>
            <rect x="640" y="178" clip-path="url(#clipPath49)" fill="rgb(131,122,133)" width="180" rx="0" opacity="0.2549" ry="0" height="60" stroke="none"/>
            <rect x="641" y="179" clip-path="url(#clipPath49)" fill="rgb(131,122,133)" width="180" rx="0" opacity="0.2549" ry="0" height="60" stroke="none"/>
            <rect x="639" y="177" clip-path="url(#clipPath50)" fill="url(#linearGradient12)" width="180" rx="0" ry="0" height="60" stroke="none"/>
            <rect x="639" y="177" clip-path="url(#clipPath50)" fill="none" width="179" rx="0" ry="0" height="59"/>
            <text xml:space="preserve" x="645" y="200" clip-path="url(#clipPath51)" stroke="none">TableMcqColumnItem</text>
            <text xml:space="preserve" x="644" y="229" clip-path="url(#clipPath52)" stroke="none">text : EString</text>
            <line clip-path="url(#clipPath53)" fill="none" x1="640" x2="818" y1="209" y2="209"/>
            <line clip-path="url(#clipPath54)" fill="none" x1="1186" x2="1186" y1="93" y2="82" stroke="rgb(136,136,136)"/>
            <line clip-path="url(#clipPath54)" fill="none" x1="1186" x2="912" y1="82" y2="82" stroke="rgb(136,136,136)"/>
            <line clip-path="url(#clipPath54)" fill="none" x1="912" x2="912" y1="82" y2="64" stroke="rgb(136,136,136)"/>
            <polygon fill="white" clip-path="url(#clipPath55)" points=" 912 64 916 72 908 72" stroke="none"/>
            <polygon fill="none" clip-path="url(#clipPath55)" points=" 912 64 916 72 908 72" stroke="rgb(136,136,136)"/>
            <line clip-path="url(#clipPath54)" fill="none" x1="912" x2="912" y1="93" y2="82" stroke="rgb(136,136,136)"/>
            <line clip-path="url(#clipPath54)" fill="none" x1="912" x2="912" y1="82" y2="82" stroke="rgb(136,136,136)"/>
            <line clip-path="url(#clipPath54)" fill="none" x1="912" x2="912" y1="82" y2="64" stroke="rgb(136,136,136)"/>
            <polygon fill="white" clip-path="url(#clipPath55)" points=" 912 64 916 72 908 72" stroke="none"/>
            <polygon fill="none" clip-path="url(#clipPath55)" points=" 912 64 916 72 908 72" stroke="rgb(136,136,136)"/>
            <line clip-path="url(#clipPath54)" fill="none" x1="561" x2="561" y1="93" y2="82" stroke="rgb(136,136,136)"/>
            <line clip-path="url(#clipPath54)" fill="none" x1="561" x2="912" y1="82" y2="82" stroke="rgb(136,136,136)"/>
            <line clip-path="url(#clipPath54)" fill="none" x1="912" x2="912" y1="82" y2="64" stroke="rgb(136,136,136)"/>
            <polygon fill="white" clip-path="url(#clipPath55)" points=" 912 64 916 72 908 72" stroke="none"/>
            <polygon fill="none" clip-path="url(#clipPath55)" points=" 912 64 916 72 908 72" stroke="rgb(136,136,136)"/>
            <line clip-path="url(#clipPath54)" fill="none" x1="1438" x2="1438" y1="178" y2="163" stroke="rgb(136,136,136)"/>
            <line clip-path="url(#clipPath54)" fill="none" x1="1438" x2="1536" y1="163" y2="163" stroke="rgb(136,136,136)"/>
            <line clip-path="url(#clipPath54)" fill="none" x1="1536" x2="1536" y1="163" y2="144" stroke="rgb(136,136,136)"/>
            <polygon fill="white" clip-path="url(#clipPath56)" points=" 1536 144 1540 152 1532 152" stroke="none"/>
            <polygon fill="none" clip-path="url(#clipPath56)" points=" 1536 144 1540 152 1532 152" stroke="rgb(136,136,136)"/>
            <line clip-path="url(#clipPath54)" fill="none" x1="1635" x2="1635" y1="178" y2="163" stroke="rgb(136,136,136)"/>
            <line clip-path="url(#clipPath54)" fill="none" x1="1635" x2="1536" y1="163" y2="163" stroke="rgb(136,136,136)"/>
            <line clip-path="url(#clipPath54)" fill="none" x1="1536" x2="1536" y1="163" y2="144" stroke="rgb(136,136,136)"/>
            <polygon fill="white" clip-path="url(#clipPath56)" points=" 1536 144 1540 152 1532 152" stroke="none"/>
            <polygon fill="none" clip-path="url(#clipPath56)" points=" 1536 144 1540 152 1532 152" stroke="rgb(136,136,136)"/>
            <line clip-path="url(#clipPath54)" fill="none" x1="1152" x2="1152" y1="146" y2="177"/>
            <text xml:space="preserve" x="1136" y="159" clip-path="url(#clipPath57)" stroke="none">1</text>
            <text xml:space="preserve" x="1157" y="170" clip-path="url(#clipPath58)" stroke="none">* statements</text>
            <polygon clip-path="url(#clipPath59)" points=" 1152 146 1155 152 1152 158 1149 152" stroke="none"/>
            <polygon fill="none" clip-path="url(#clipPath59)" points=" 1152 146 1155 152 1152 158 1149 152"/>
            <line clip-path="url(#clipPath60)" fill="none" x1="1149" x2="1152" y1="170" y2="177"/>
            <line clip-path="url(#clipPath60)" fill="none" x1="1152" x2="1155" y1="177" y2="170"/>
            <line clip-path="url(#clipPath54)" fill="none" x1="1267" x2="1301" y1="214" y2="214"/>
            <line clip-path="url(#clipPath54)" fill="none" x1="1301" x2="1301" y1="214" y2="141"/>
            <line clip-path="url(#clipPath54)" fill="none" x1="1301" x2="1363" y1="141" y2="141"/>
            <text xml:space="preserve" x="1269" y="233" clip-path="url(#clipPath61)" stroke="none">1 statement</text>
            <text xml:space="preserve" x="1243" y="132" clip-path="url(#clipPath62)" stroke="none">  components *</text>
            <polygon clip-path="url(#clipPath63)" points=" 1267 214 1273 211 1279 214 1273 217" stroke="none"/>
            <polygon fill="none" clip-path="url(#clipPath63)" points=" 1267 214 1273 211 1279 214 1273 217"/>
            <line clip-path="url(#clipPath64)" fill="none" x1="1356" x2="1363" y1="144" y2="141"/>
            <line clip-path="url(#clipPath64)" fill="none" x1="1363" x2="1356" y1="141" y2="138"/>
            <line clip-path="url(#clipPath54)" fill="none" x1="909" x2="909" y1="145" y2="177"/>
            <text xml:space="preserve" x="916" y="159" clip-path="url(#clipPath65)" stroke="none">1</text>
            <text xml:space="preserve" x="829" y="172" clip-path="url(#clipPath66)" stroke="none"> choices *</text>
            <polygon clip-path="url(#clipPath67)" points=" 909 145 912 151 909 157 906 151" stroke="none"/>
            <polygon fill="none" clip-path="url(#clipPath67)" points=" 909 145 912 151 909 157 906 151"/>
            <line clip-path="url(#clipPath68)" fill="none" x1="906" x2="909" y1="170" y2="177"/>
            <line clip-path="url(#clipPath68)" fill="none" x1="909" x2="912" y1="177" y2="170"/>
            <line clip-path="url(#clipPath54)" fill="none" x1="959" x2="959" y1="145" y2="177"/>
            <text xml:space="preserve" x="964" y="170" clip-path="url(#clipPath69)" stroke="none">* correctChoices</text>
            <line clip-path="url(#clipPath70)" fill="none" x1="956" x2="959" y1="170" y2="177"/>
            <line clip-path="url(#clipPath70)" fill="none" x1="959" x2="962" y1="177" y2="170"/>
            <line clip-path="url(#clipPath54)" fill="none" x1="444" x2="145" y1="120" y2="120"/>
            <line clip-path="url(#clipPath54)" fill="none" x1="145" x2="145" y1="120" y2="177"/>
            <text xml:space="preserve" x="424" y="109" clip-path="url(#clipPath71)" stroke="none">1</text>
            <text xml:space="preserve" x="53" y="170" clip-path="url(#clipPath72)" stroke="none">rowItems *</text>
            <polygon clip-path="url(#clipPath73)" points=" 444 120 438 123 432 120 438 117" stroke="none"/>
            <polygon fill="none" clip-path="url(#clipPath73)" points=" 444 120 438 123 432 120 438 117"/>
            <line clip-path="url(#clipPath74)" fill="none" x1="142" x2="145" y1="170" y2="177"/>
            <line clip-path="url(#clipPath74)" fill="none" x1="145" x2="148" y1="177" y2="170"/>
            <line clip-path="url(#clipPath54)" fill="none" x1="650" x2="776" y1="122" y2="122"/>
            <line clip-path="url(#clipPath54)" fill="none" x1="776" x2="776" y1="122" y2="177"/>
            <text xml:space="preserve" x="652" y="112" clip-path="url(#clipPath75)" stroke="none"> 1</text>
            <text xml:space="preserve" x="657" y="168" clip-path="url(#clipPath76)" stroke="none">columnItems *</text>
            <polygon clip-path="url(#clipPath77)" points=" 650 122 656 119 662 122 656 125" stroke="none"/>
            <polygon fill="none" clip-path="url(#clipPath77)" points=" 650 122 656 119 662 122 656 125"/>
            <line clip-path="url(#clipPath78)" fill="none" x1="773" x2="776" y1="170" y2="177"/>
            <line clip-path="url(#clipPath78)" fill="none" x1="776" x2="779" y1="177" y2="170"/>
            <line clip-path="url(#clipPath54)" fill="none" x1="462" x2="462" y1="145" y2="177"/>
            <text xml:space="preserve" x="467" y="162" clip-path="url(#clipPath79)" stroke="none">1</text>
            <text xml:space="preserve" x="329" y="172" clip-path="url(#clipPath80)" stroke="none"> correctEntries  *</text>
            <polygon clip-path="url(#clipPath81)" points=" 462 145 465 151 462 157 459 151" stroke="none"/>
            <polygon fill="none" clip-path="url(#clipPath81)" points=" 462 145 465 151 462 157 459 151"/>
            <line clip-path="url(#clipPath82)" fill="none" x1="459" x2="462" y1="170" y2="177"/>
            <line clip-path="url(#clipPath82)" fill="none" x1="462" x2="465" y1="177" y2="170"/>
            <line clip-path="url(#clipPath54)" fill="none" x1="496" x2="639" y1="216" y2="216"/>
            <text xml:space="preserve" x="498" y="206" clip-path="url(#clipPath83)" stroke="none"> * correctEntries</text>
            <text xml:space="preserve" x="528" y="234" clip-path="url(#clipPath84)" stroke="none">columnItem 1</text>
            <line clip-path="url(#clipPath85)" fill="none" x1="503" x2="496" y1="213" y2="216"/>
            <line clip-path="url(#clipPath85)" fill="none" x1="496" x2="503" y1="216" y2="219"/>
            <line clip-path="url(#clipPath86)" fill="none" x1="632" x2="639" y1="219" y2="216"/>
            <line clip-path="url(#clipPath86)" fill="none" x1="639" x2="632" y1="216" y2="213"/>
            <line clip-path="url(#clipPath54)" fill="none" x1="310" x2="170" y1="210" y2="210"/>
            <text xml:space="preserve" x="185" y="201" clip-path="url(#clipPath87)" stroke="none">correctEntries *</text>
            <text xml:space="preserve" x="174" y="229" clip-path="url(#clipPath88)" stroke="none">1 rowitem</text>
            <line clip-path="url(#clipPath89)" fill="none" x1="303" x2="310" y1="213" y2="210"/>
            <line clip-path="url(#clipPath89)" fill="none" x1="310" x2="303" y1="210" y2="207"/>
            <line clip-path="url(#clipPath90)" fill="none" x1="177" x2="170" y1="207" y2="210"/>
            <line clip-path="url(#clipPath90)" fill="none" x1="170" x2="177" y1="210" y2="213"/>
        </g>
    </g>
</svg>
